<?xml version="1.0" encoding="iso-8859-1"?>
<!-- Generator: Adobe Illustrator 21.0.0, SVG Export Plug-In . SVG Version: 6.00 Build 0)  -->
<svg version="1.1" id="Capa_1" xmlns="http://www.w3.org/2000/svg" xmlns:xlink="http://www.w3.org/1999/xlink" x="0px" y="0px"
	 viewBox="0 0 512 512" style="enable-background:new 0 0 512 512;" xml:space="preserve">
<linearGradient id="SVGID_1_" gradientUnits="userSpaceOnUse" x1="437.0193" y1="76.9807" x2="74.9807" y2="439.0193" gradientTransform="matrix(1 0 0 -1 0 514)">
	<stop  offset="0" style="stop-color:#E67500"/>
	<stop  offset="1" style="stop-color:#FFC473"/>
</linearGradient>
<circle style="fill:url(#SVGID_1_);" cx="256" cy="256" r="256"/>
<linearGradient id="SVGID_2_" gradientUnits="userSpaceOnUse" x1="122.205" y1="258" x2="349.22" y2="258" gradientTransform="matrix(1 0 0 -1 0 514)">
	<stop  offset="0" style="stop-color:#FFFFFF"/>
	<stop  offset="1" style="stop-color:#FFEC98"/>
</linearGradient>
<path style="fill:url(#SVGID_2_);" d="M320.508,442.121H150.917c-15.791,0-28.712-12.92-28.712-28.712V98.591
	c0-15.791,12.92-28.712,28.712-28.712h169.591c15.791,0,28.712,12.92,28.712,28.712V413.41
	C349.22,429.201,336.299,442.121,320.508,442.121z"/>
<linearGradient id="SVGID_3_" gradientUnits="userSpaceOnUse" x1="143.65" y1="273.995" x2="327.78" y2="273.995" gradientTransform="matrix(1 0 0 -1 0 514)">
	<stop  offset="0" style="stop-color:#00EFD1"/>
	<stop  offset="1" style="stop-color:#006759"/>
</linearGradient>
<rect x="143.65" y="95.67" style="fill:url(#SVGID_3_);" width="184.13" height="288.67"/>
<linearGradient id="SVGID_4_" gradientUnits="userSpaceOnUse" x1="204.508" y1="102.333" x2="266.917" y2="102.333" gradientTransform="matrix(1 0 0 -1 0 514)">
	<stop  offset="0" style="stop-color:#CA80DE"/>
	<stop  offset="1" style="stop-color:#5C1B6F"/>
</linearGradient>
<path style="fill:url(#SVGID_4_);" d="M252.584,426h-33.743c-7.916,0-14.333-6.417-14.333-14.333l0,0
	c0-7.916,6.417-14.333,14.333-14.333h33.743c7.916,0,14.333,6.417,14.333,14.333l0,0C266.917,419.583,260.5,426,252.584,426z"/>
<linearGradient id="SVGID_5_" gradientUnits="userSpaceOnUse" x1="232.804" y1="295.9705" x2="465.636" y2="295.9705" gradientTransform="matrix(1 0 0 -1 0 514)">
	<stop  offset="0" style="stop-color:#FF2F57"/>
	<stop  offset="1" style="stop-color:#9A0011"/>
</linearGradient>
<path style="fill:url(#SVGID_5_);" d="M349.22,101.613c-64.295,0-116.416,52.121-116.416,116.416
	c0,24.308,7.454,46.872,20.195,65.542l-6.069,35.324l38.423-3.527c18.338,12.056,40.281,19.078,63.867,19.078
	c64.295,0,116.416-52.121,116.416-116.416S413.514,101.613,349.22,101.613z"/>
<g>
	
		<linearGradient id="SVGID_6_" gradientUnits="userSpaceOnUse" x1="271.67" y1="295.9695" x2="414.34" y2="295.9695" gradientTransform="matrix(1 0 0 -1 0 514)">
		<stop  offset="0" style="stop-color:#FFFFFF"/>
		<stop  offset="1" style="stop-color:#FFEC98"/>
	</linearGradient>
	<path style="fill:url(#SVGID_6_);" d="M302.587,203.306c-0.403-0.402-1.137-0.95-2.202-1.641c-1.066-0.691-2.361-1.367-3.886-2.03
		c-1.526-0.661-3.182-1.222-4.965-1.684c-1.785-0.46-3.599-0.691-5.441-0.691c-3.282,0-5.729,0.604-7.341,1.814
		c-1.612,1.209-2.418,2.908-2.418,5.095c0,1.267,0.303,2.318,0.907,3.152c0.605,0.835,1.481,1.569,2.634,2.202
		c1.152,0.634,2.605,1.209,4.361,1.727c1.756,0.518,3.785,1.066,6.089,1.641c2.992,0.807,5.713,1.671,8.16,2.59
		c2.446,0.922,4.519,2.073,6.218,3.455c1.698,1.382,3.008,3.037,3.929,4.965c0.921,1.93,1.382,4.304,1.382,7.125
		c0,3.282-0.62,6.088-1.856,8.42c-1.239,2.332-2.908,4.218-5.009,5.657c-2.103,1.439-4.52,2.491-7.254,3.152
		c-2.735,0.661-5.6,0.993-8.593,0.993c-4.606,0-9.154-0.691-13.645-2.072c-4.491-1.382-8.521-3.338-12.089-5.872l5.268-10.277
		c0.517,0.518,1.453,1.195,2.806,2.029c1.352,0.835,2.949,1.671,4.792,2.504c1.842,0.835,3.886,1.541,6.132,2.116
		c2.245,0.576,4.547,0.864,6.908,0.864c6.563,0,9.844-2.101,9.844-6.304c0-1.323-0.375-2.446-1.123-3.368
		c-0.749-0.921-1.813-1.727-3.195-2.418c-1.382-0.691-3.052-1.323-5.008-1.9c-1.958-0.575-4.146-1.209-6.564-1.9
		c-2.936-0.805-5.484-1.684-7.643-2.633c-2.159-0.95-3.959-2.073-5.397-3.368c-1.44-1.295-2.52-2.792-3.239-4.491
		c-0.721-1.697-1.08-3.727-1.08-6.088c0-3.109,0.575-5.872,1.727-8.29c1.152-2.418,2.749-4.433,4.793-6.045
		c2.042-1.611,4.417-2.835,7.124-3.67c2.705-0.834,5.614-1.252,8.723-1.252c4.318,0,8.29,0.677,11.918,2.029
		c3.626,1.354,6.792,2.951,9.499,4.793L302.587,203.306z"/>
	
		<linearGradient id="SVGID_7_" gradientUnits="userSpaceOnUse" x1="271.67" y1="296.1" x2="414.34" y2="296.1" gradientTransform="matrix(1 0 0 -1 0 514)">
		<stop  offset="0" style="stop-color:#FFFFFF"/>
		<stop  offset="1" style="stop-color:#FFEC98"/>
	</linearGradient>
	<path style="fill:url(#SVGID_7_);" d="M349.478,248.988c-4.491,0-8.564-0.877-12.219-2.633c-3.657-1.755-6.794-4.087-9.413-6.995
		c-2.621-2.906-4.65-6.231-6.088-9.974c-1.44-3.742-2.159-7.57-2.159-11.485c0-4.087,0.762-8.002,2.288-11.745
		c1.525-3.742,3.628-7.052,6.305-9.931c2.676-2.878,5.857-5.167,9.542-6.865c3.684-1.698,7.686-2.548,12.004-2.548
		c4.432,0,8.476,0.907,12.132,2.72c3.656,1.814,6.779,4.188,9.37,7.125c2.592,2.936,4.605,6.276,6.045,10.017
		c1.439,3.743,2.159,7.543,2.159,11.4c0,4.088-0.749,7.988-2.245,11.701c-1.498,3.713-3.57,6.995-6.218,9.845
		c-2.649,2.85-5.816,5.125-9.499,6.822C357.797,248.14,353.796,248.988,349.478,248.988z M331.689,217.9
		c0,2.649,0.403,5.211,1.21,7.686c0.805,2.476,1.971,4.663,3.497,6.563c1.525,1.9,3.396,3.426,5.613,4.577
		c2.215,1.152,4.735,1.727,7.557,1.727c2.878,0,5.426-0.59,7.643-1.77c2.215-1.179,4.087-2.749,5.613-4.706
		c1.525-1.956,2.677-4.159,3.455-6.607c0.777-2.446,1.166-4.936,1.166-7.47c0-2.647-0.418-5.21-1.252-7.686
		c-0.836-2.475-2.017-4.663-3.542-6.563c-1.526-1.9-3.397-3.411-5.613-4.534c-2.217-1.122-4.706-1.684-7.47-1.684
		c-2.88,0-5.441,0.591-7.686,1.77c-2.245,1.181-4.116,2.735-5.613,4.663c-1.498,1.929-2.634,4.117-3.412,6.563
		C332.077,212.878,331.689,215.367,331.689,217.9z"/>
	
		<linearGradient id="SVGID_8_" gradientUnits="userSpaceOnUse" x1="271.67" y1="295.9695" x2="414.34" y2="295.9695" gradientTransform="matrix(1 0 0 -1 0 514)">
		<stop  offset="0" style="stop-color:#FFFFFF"/>
		<stop  offset="1" style="stop-color:#FFEC98"/>
	</linearGradient>
	<path style="fill:url(#SVGID_8_);" d="M429.445,203.306c-0.403-0.402-1.137-0.95-2.202-1.641c-1.066-0.691-2.361-1.367-3.886-2.03
		c-1.526-0.661-3.182-1.222-4.965-1.684c-1.786-0.46-3.599-0.691-5.441-0.691c-3.282,0-5.729,0.604-7.341,1.814
		c-1.612,1.209-2.418,2.908-2.418,5.095c0,1.267,0.303,2.318,0.907,3.152c0.604,0.835,1.481,1.569,2.633,2.202
		c1.152,0.634,2.605,1.209,4.361,1.727c1.756,0.518,3.785,1.066,6.089,1.641c2.992,0.807,5.713,1.671,8.16,2.59
		c2.446,0.922,4.519,2.073,6.218,3.455c1.698,1.382,3.008,3.037,3.929,4.965c0.921,1.93,1.382,4.304,1.382,7.125
		c0,3.282-0.62,6.088-1.856,8.42c-1.239,2.332-2.909,4.218-5.009,5.657c-2.103,1.439-4.52,2.491-7.254,3.152
		c-2.735,0.661-5.6,0.993-8.593,0.993c-4.606,0-9.154-0.691-13.645-2.072c-4.491-1.382-8.521-3.338-12.089-5.872l5.268-10.277
		c0.518,0.518,1.453,1.195,2.806,2.029c1.352,0.835,2.95,1.671,4.792,2.504c1.842,0.835,3.886,1.541,6.132,2.116
		c2.245,0.576,4.547,0.864,6.908,0.864c6.563,0,9.845-2.101,9.845-6.304c0-1.323-0.375-2.446-1.123-3.368
		c-0.749-0.921-1.813-1.727-3.195-2.418c-1.382-0.691-3.052-1.323-5.008-1.9c-1.958-0.575-4.146-1.209-6.564-1.9
		c-2.936-0.805-5.484-1.684-7.643-2.633c-2.159-0.95-3.959-2.073-5.397-3.368c-1.44-1.295-2.52-2.792-3.239-4.491
		c-0.721-1.697-1.08-3.727-1.08-6.088c0-3.109,0.575-5.872,1.727-8.29c1.151-2.418,2.749-4.433,4.793-6.045
		c2.042-1.611,4.417-2.835,7.124-3.67c2.705-0.834,5.614-1.252,8.723-1.252c4.318,0,8.29,0.677,11.917,2.029
		c3.626,1.354,6.792,2.951,9.499,4.793L429.445,203.306z"/>
</g>
<g>
</g>
<g>
</g>
<g>
</g>
<g>
</g>
<g>
</g>
<g>
</g>
<g>
</g>
<g>
</g>
<g>
</g>
<g>
</g>
<g>
</g>
<g>
</g>
<g>
</g>
<g>
</g>
<g>
</g>
</svg>
