<svg class="ldi-2kdem7" width="200px"  height="200px"  xmlns="http://www.w3.org/2000/svg" xmlns:xlink="http://www.w3.org/1999/xlink" viewBox="0 0 100 100" preserveAspectRatio="xMidYMid" style="background: none;"><!--?xml version="1.0" encoding="utf-8"?--><!--Generator: Adobe Illustrator 21.0.0, SVG Export Plug-In . SVG Version: 6.00 Build 0)--><svg version="1.1" id="圖層_1" xmlns="http://www.w3.org/2000/svg" xmlns:xlink="http://www.w3.org/1999/xlink" x="0px" y="0px" viewBox="0 0 100 100" style="transform-origin: 50px 50px 0px;" xml:space="preserve"><g style="transform-origin: 50px 50px 0px;"><g style="transform-origin: 50px 50px 0px; transform: scale(0.6);"><g style="transform-origin: 50px 50px 0px;"><g><style type="text/css" class="ld ld-breath" style="transform-origin: 50px 50px 0px; animation-duration: 2s; animation-delay: -2s; animation-direction: normal;">.st0{fill:url(#SVGID_1_);} .st1{fill:none;stroke:#333333;stroke-width:3.5;stroke-linecap:round;stroke-miterlimit:10;} .st2{fill:none;stroke:#E15B64;stroke-width:3.5;stroke-linecap:round;stroke-miterlimit:10;} .st3{fill:#E0E0E0;} .st4{opacity:0.2;} .st5{fill:#849B87;stroke:#333333;stroke-width:3.5;stroke-miterlimit:10;} .st6{fill:#E15B64;stroke:#333333;stroke-width:3.5;stroke-miterlimit:10;} .st7{fill:#FFFFFF;stroke:#333333;stroke-width:3.5;stroke-miterlimit:10;} .st8{fill:none;stroke:#C33737;stroke-width:3.5;stroke-linecap:round;stroke-miterlimit:10;} .st9{fill:#333333;} .st10{fill:none;stroke:#FFFFFF;stroke-width:3.5;stroke-miterlimit:10;} .st11{fill:none;stroke:#FFFFFF;stroke-width:3.5;stroke-linecap:round;stroke-miterlimit:10;} .st12{fill:#FFFFFF;} .st13{fill:none;stroke:#E0E0E0;stroke-width:3.5;stroke-linecap:round;stroke-miterlimit:10;} .st14{fill:url(#SVGID_2_);} .st15{opacity:0.3;fill:#F5E6C8;} .st16{fill:#F8B26A;stroke:#333333;stroke-width:3.5;stroke-miterlimit:10;} .st17{fill:url(#SVGID_3_);} .st18{fill:url(#SVGID_4_);} .st19{fill:url(#SVGID_5_);} .st20{fill:url(#SVGID_6_);} .st21{fill:url(#SVGID_7_);} .st22{fill:url(#SVGID_8_);} .st23{fill:url(#SVGID_9_);} .st24{fill:url(#SVGID_10_);} .st25{fill:url(#SVGID_11_);} .st26{fill:url(#SVGID_12_);} .st27{fill:url(#SVGID_13_);} .st28{fill:url(#SVGID_14_);} .st29{fill:url(#SVGID_15_);} .st30{fill:url(#SVGID_16_);} .st31{fill:url(#SVGID_17_);} .st32{fill:url(#SVGID_18_);} .st33{fill:url(#SVGID_19_);} .st34{fill:url(#SVGID_20_);}</style><linearGradient id="SVGID_1_" gradientUnits="userSpaceOnUse" x1="31.167" y1="33.6716" x2="68.1824" y2="74.9579" class="ld ld-breath" style="transform-origin: 50px 50px 0px; animation-duration: 2s; animation-delay: -1.94286s; animation-direction: normal;"><stop offset="0" style="stop-color: rgb(224, 224, 224); transform-origin: 50px 50px 0px; animation-duration: 2s; animation-delay: -1.88571s; animation-direction: normal;" stop-color="rgb(224, 224, 224)" class="ld ld-breath"></stop><stop offset="1" style="stop-color: rgb(204, 204, 204); transform-origin: 50px 50px 0px; animation-duration: 2s; animation-delay: -1.82857s; animation-direction: normal;" stop-color="rgb(204, 204, 204)" class="ld ld-breath"></stop></linearGradient><g class="ld ld-breath" style="transform-origin: 50px 50px 0px; animation-duration: 2s; animation-delay: -1.77143s; animation-direction: normal;"><circle class="st0" cx="49.253" cy="53.844" r="31.89"></circle></g><g class="ld ld-breath" style="transform-origin: 50px 50px 0px; animation-duration: 2s; animation-delay: -1.71429s; animation-direction: normal;"><line class="st1" x1="49.253" y1="21.954" x2="49.253" y2="31.848" stroke="rgb(51, 51, 51)" style="stroke: rgb(51, 51, 51);"></line></g><g class="ld ld-breath" style="transform-origin: 50px 50px 0px; animation-duration: 2s; animation-delay: -1.65714s; animation-direction: normal;"><line class="st1" x1="71.802" y1="31.294" x2="64.806" y2="38.291" stroke="rgb(51, 51, 51)" style="stroke: rgb(51, 51, 51);"></line></g><g class="ld ld-breath" style="transform-origin: 50px 50px 0px; animation-duration: 2s; animation-delay: -1.6s; animation-direction: normal;"><line class="st1" x1="81.143" y1="53.844" x2="71.248" y2="53.844" stroke="rgb(51, 51, 51)" style="stroke: rgb(51, 51, 51);"></line></g><g class="ld ld-breath" style="transform-origin: 50px 50px 0px; animation-duration: 2s; animation-delay: -1.54286s; animation-direction: normal;"><line class="st1" x1="71.802" y1="76.394" x2="64.806" y2="69.397" stroke="rgb(51, 51, 51)" style="stroke: rgb(51, 51, 51);"></line></g><g class="ld ld-breath" style="transform-origin: 50px 50px 0px; animation-duration: 2s; animation-delay: -1.48571s; animation-direction: normal;"><line class="st1" x1="49.253" y1="85.734" x2="49.253" y2="75.84" stroke="rgb(51, 51, 51)" style="stroke: rgb(51, 51, 51);"></line></g><g class="ld ld-breath" style="transform-origin: 50px 50px 0px; animation-duration: 2s; animation-delay: -1.42857s; animation-direction: normal;"><line class="st1" x1="26.703" y1="76.394" x2="33.699" y2="69.397" stroke="rgb(51, 51, 51)" style="stroke: rgb(51, 51, 51);"></line></g><g class="ld ld-breath" style="transform-origin: 50px 50px 0px; animation-duration: 2s; animation-delay: -1.37143s; animation-direction: normal;"><line class="st1" x1="17.362" y1="53.844" x2="27.257" y2="53.844" stroke="rgb(51, 51, 51)" style="stroke: rgb(51, 51, 51);"></line></g><g class="ld ld-breath" style="transform-origin: 50px 50px 0px; animation-duration: 2s; animation-delay: -1.31429s; animation-direction: normal;"><line class="st1" x1="26.703" y1="31.294" x2="33.699" y2="38.291" stroke="rgb(51, 51, 51)" style="stroke: rgb(51, 51, 51);"></line></g><g class="ld ld-breath" style="transform-origin: 50px 50px 0px; animation-duration: 2s; animation-delay: -1.25714s; animation-direction: normal;"><line class="st2" x1="48.973" y1="53.564" x2="34.519" y2="39.11" stroke="rgb(225, 91, 100)" style="stroke: rgb(225, 91, 100);"></line></g><g class="ld ld-breath" style="transform-origin: 50px 50px 0px; animation-duration: 2s; animation-delay: -1.2s; animation-direction: normal;"><path class="st1" d="M41.565,23.876v-7.688c0-4.246,3.442-7.688,7.688-7.688h0c4.246,0,7.688,3.442,7.688,7.688v7.688" stroke="rgb(51, 51, 51)" style="stroke: rgb(51, 51, 51);"></path></g><g class="ld ld-breath" style="transform-origin: 50px 50px 0px; animation-duration: 2s; animation-delay: -1.14286s; animation-direction: normal;"><path class="st7" d="M49.253,53.844L49.253,53.844c-1.381,0-2.501-1.12-2.501-2.501V34.349c0-1.381,1.12-2.501,2.501-2.501h0 c1.381,0,2.501,1.12,2.501,2.501v16.994C51.753,52.724,50.634,53.844,49.253,53.844z" stroke="rgb(51, 51, 51)" fill="rgb(255, 255, 255)" style="stroke: rgb(51, 51, 51); fill: rgb(255, 255, 255);"></path></g><g class="ld ld-breath" style="transform-origin: 50px 50px 0px; animation-duration: 2s; animation-delay: -1.08571s; animation-direction: normal;"><path class="st4" d="M49.253,21.954c-15.24,0-27.975,10.693-31.132,24.984c0.556-1.544,1.212-3.081,1.978-4.599 c7.93-15.726,24.245-23.49,36.441-17.34c12.196,6.15,15.655,23.884,7.725,39.61C58.561,75.92,48.518,83.112,38.791,83.969 c3.278,1.138,6.796,1.765,10.462,1.765c17.612,0,31.89-14.278,31.89-31.89C81.143,36.231,66.865,21.954,49.253,21.954z" fill="rgb(0, 0, 0)" style="fill: rgb(0, 0, 0);"></path></g><g class="ld ld-breath" style="transform-origin: 50px 50px 0px; animation-duration: 2s; animation-delay: -1.02857s; animation-direction: normal;"><path class="st7" d="M49.253,53.844L49.253,53.844c0-1.381,1.12-2.501,2.501-2.501h9.307c1.381,0,2.501,1.12,2.501,2.501v0 c0,1.381-1.12,2.501-2.501,2.501h-9.307C50.372,56.344,49.253,55.225,49.253,53.844z" stroke="rgb(51, 51, 51)" fill="rgb(255, 255, 255)" style="stroke: rgb(51, 51, 51); fill: rgb(255, 255, 255);"></path></g><g class="ld ld-breath" style="transform-origin: 50px 50px 0px; animation-duration: 2s; animation-delay: -0.971429s; animation-direction: normal;"><path class="st11" d="M32.612,40.459c1.769-2.197,3.965-4.036,6.462-5.393" stroke="rgb(255, 255, 255)" style="stroke: rgb(255, 255, 255);"></path></g><g class="ld ld-breath" style="transform-origin: 50px 50px 0px; animation-duration: 2s; animation-delay: -0.914286s; animation-direction: normal;"><path class="st11" d="M29.269,46.297c0.18-0.477,0.377-0.945,0.589-1.405" stroke="rgb(255, 255, 255)" style="stroke: rgb(255, 255, 255);"></path></g><g class="ld ld-breath" style="transform-origin: 50px 50px 0px; animation-duration: 2s; animation-delay: -0.857143s; animation-direction: normal;"><path class="st15" d="M75.377,53.844c0-3.564-0.719-6.962-2.017-10.06L39.192,77.951c3.098,1.298,6.497,2.017,10.06,2.017 c0.105,0,0.208-0.007,0.312-0.008l25.804-25.804C75.37,54.052,75.377,53.949,75.377,53.844z" fill="rgb(245, 230, 200)" style="fill: rgb(245, 230, 200);"></path></g><g class="ld ld-breath" style="transform-origin: 50px 50px 0px; animation-duration: 2s; animation-delay: -0.8s; animation-direction: normal;"><path class="st6" d="M49.253,90.005c-19.939,0-36.161-16.222-36.161-36.161s16.222-36.161,36.161-36.161 s36.161,16.222,36.161,36.161S69.192,90.005,49.253,90.005z M49.253,26.225c-15.229,0-27.619,12.39-27.619,27.619 s12.39,27.619,27.619,27.619s27.619-12.39,27.619-27.619S64.482,26.225,49.253,26.225z" stroke="rgb(51, 51, 51)" fill="rgb(225, 91, 100)" style="stroke: rgb(51, 51, 51); fill: rgb(225, 91, 100);"></path></g><g class="ld ld-breath" style="transform-origin: 50px 50px 0px; animation-duration: 2s; animation-delay: -0.742857s; animation-direction: normal;"><path class="st4" d="M75.377,53.844c0,14.405-11.719,26.124-26.124,26.124V91.5c20.764,0,37.656-16.893,37.656-37.656 S70.016,16.188,49.253,16.188v11.532C63.658,27.719,75.377,39.439,75.377,53.844z" fill="rgb(0, 0, 0)" style="fill: rgb(0, 0, 0);"></path></g><g class="ld ld-breath" style="transform-origin: 50px 50px 0px; animation-duration: 2s; animation-delay: -0.685714s; animation-direction: normal;"><circle class="st16" cx="49.253" cy="53.844" r="5.125" stroke="rgb(51, 51, 51)" fill="rgb(248, 178, 106)" style="stroke: rgb(51, 51, 51); fill: rgb(248, 178, 106);"></circle></g><g class="ld ld-breath" style="transform-origin: 50px 50px 0px; animation-duration: 2s; animation-delay: -0.628571s; animation-direction: normal;"><path class="st15" d="M66.224,34.007L29.416,70.815c0.696,0.812,1.436,1.584,2.225,2.305l36.889-36.889 C67.808,35.443,67.036,34.703,66.224,34.007z" fill="rgb(245, 230, 200)" style="fill: rgb(245, 230, 200);"></path></g><g class="ld ld-breath" style="transform-origin: 50px 50px 0px; animation-duration: 2s; animation-delay: -0.571429s; animation-direction: normal;"><path class="st15" d="M70.298,38.389L33.798,74.89c0.878,0.647,1.799,1.239,2.756,1.774l35.518-35.518 C71.537,40.188,70.945,39.268,70.298,38.389z" fill="rgb(245, 230, 200)" style="fill: rgb(245, 230, 200);"></path></g><metadata xmlns:d="https://loading.io/stock/" class="ld ld-breath" style="transform-origin: 50px 50px 0px; animation-duration: 2s; animation-delay: -0.514286s; animation-direction: normal;">
<d:name class="ld ld-breath" style="transform-origin: 50px 50px 0px; animation-duration: 2s; animation-delay: -0.457143s; animation-direction: normal;">clock</d:name>
<d:tags class="ld ld-breath" style="transform-origin: 50px 50px 0px; animation-duration: 2s; animation-delay: -0.4s; animation-direction: normal;">clock,time,second</d:tags>
<d:license class="ld ld-breath" style="transform-origin: 50px 50px 0px; animation-duration: 2s; animation-delay: -0.342857s; animation-direction: normal;">cc-by</d:license>
<d:slug class="ld ld-breath" style="transform-origin: 50px 50px 0px; animation-duration: 2s; animation-delay: -0.285714s; animation-direction: normal;">2kdem7</d:slug>
</metadata></g></g></g></g><style type="text/css" class="ld ld-breath" style="transform-origin: 50px 50px 0px; animation-duration: 2s; animation-delay: -0.228571s; animation-direction: normal;">@keyframes ld-breath {
  0% {
    -webkit-transform: scale(0.86);
    transform: scale(0.86);
  }
  50% {
    -webkit-transform: scale(1.06);
    transform: scale(1.06);
  }
  100% {
    -webkit-transform: scale(0.86);
    transform: scale(0.86);
  }
}
@-webkit-keyframes ld-breath {
  0% {
    -webkit-transform: scale(0.86);
    transform: scale(0.86);
  }
  50% {
    -webkit-transform: scale(1.06);
    transform: scale(1.06);
  }
  100% {
    -webkit-transform: scale(0.86);
    transform: scale(0.86);
  }
}
.ld.ld-breath {
  -webkit-animation: ld-breath 1s infinite;
  animation: ld-breath 1s infinite;
}
</style></svg></svg>